<?xml version="1.0" encoding="iso-8859-1"?>
<!-- Generator: Adobe Illustrator 23.0.1, SVG Export Plug-In . SVG Version: 6.00 Build 0)  -->
<svg version="1.1" xmlns="http://www.w3.org/2000/svg" xmlns:xlink="http://www.w3.org/1999/xlink" x="0px" y="0px"
	 viewBox="0 0 1366 768" style="enable-background:new 0 0 1366 768;" xml:space="preserve">
<g id="Camada_12" style="display:none;">
	<g style="display:inline;">
		<path style="fill:#E9D8EA;" d="M884.934,249.704H502.942c-19.097,0-34.578-15.481-34.578-34.578v0
			c0-19.097,15.481-34.578,34.578-34.578h381.992c19.097,0,34.578,15.481,34.578,34.578v0
			C919.512,234.223,904.031,249.704,884.934,249.704z"/>
		<path style="fill:#E9D8EA;" d="M793.868,212.172H604.731c-19.097,0-34.578-15.481-34.578-34.578v0
			c0-19.097,15.481-34.578,34.578-34.578h189.138c19.097,0,34.578,15.481,34.578,34.578v0
			C828.447,196.691,812.966,212.172,793.868,212.172z"/>
		<path style="fill:#E9D8EA;" d="M843.4,300.737H524.217c-19.097,0-34.578-15.481-34.578-34.578v0
			c0-19.097,15.481-34.578,34.578-34.578H843.4c19.097,0,34.578,15.481,34.578,34.578v0
			C877.979,285.256,862.497,300.737,843.4,300.737z"/>
		<path style="fill:#E9D8EA;" d="M898.464,352.502H461.323c-19.097,0-34.578-15.481-34.578-34.578v0
			c0-19.097,15.481-34.578,34.578-34.578h437.141c19.097,0,34.578,15.481,34.578,34.578v0
			C933.043,337.021,917.561,352.502,898.464,352.502z"/>
		<path style="fill:#E9D8EA;" d="M888.804,407.608H506.811c-19.097,0-34.578-15.481-34.578-34.578v0
			c0-19.097,15.481-34.578,34.578-34.578h381.992c19.097,0,34.578,15.481,34.578,34.578v0
			C923.382,392.127,907.901,407.608,888.804,407.608z"/>
		<path style="fill:#E9D8EA;" d="M828.337,472.794H569.74c-19.097,0-34.578-15.481-34.578-34.578v0
			c0-19.097,15.481-34.578,34.578-34.578h258.597c19.097,0,34.578,15.481,34.578,34.578v0
			C862.915,457.312,847.434,472.794,828.337,472.794z"/>
	</g>
</g>
<g id="Camada_5" style="display:none;">
	<g style="display:inline;">
		<defs>
			<path id="SVGID_3_" d="M742.074,319.226c-21.951-9.494-50.517,1.444-60.513,23.171c-9.996,21.727,0.283,50.537,21.775,61.029
				c18.786,9.172,41.219,4.724,61.109-1.713c19.89-6.437,40.063-14.802,60.881-12.892c13.478,1.236,26.672,6.782,40.113,5.194
				c18.861-2.229,34.441-20.362,33.806-39.344c-0.56-16.723-13.712-32.192-29.908-36.043c-17.509-4.163-32.999,6.519-46.289,16.488
				C787.296,361.933,776.792,334.243,742.074,319.226z"/>
		</defs>
		<clipPath id="SVGID_5_">
			<use xlink:href="#SVGID_3_"  style="overflow:visible;"/>
		</clipPath>
		<g style="clip-path:url(#SVGID_5_);">
			
				<line style="fill:none;stroke:#FFFFFF;stroke-width:2;stroke-linecap:round;stroke-linejoin:round;stroke-miterlimit:10;" x1="799.308" y1="502.033" x2="491.181" y2="505.386"/>
			
				<line style="fill:none;stroke:#FFFFFF;stroke-width:2;stroke-linecap:round;stroke-linejoin:round;stroke-miterlimit:10;" x1="818.575" y1="482.341" x2="510.448" y2="485.695"/>
			
				<line style="fill:none;stroke:#FFFFFF;stroke-width:2;stroke-linecap:round;stroke-linejoin:round;stroke-miterlimit:10;" x1="837.842" y1="462.65" x2="529.716" y2="466.004"/>
			
				<line style="fill:none;stroke:#FFFFFF;stroke-width:2;stroke-linecap:round;stroke-linejoin:round;stroke-miterlimit:10;" x1="857.109" y1="442.959" x2="548.983" y2="446.313"/>
			
				<line style="fill:none;stroke:#FFFFFF;stroke-width:2;stroke-linecap:round;stroke-linejoin:round;stroke-miterlimit:10;" x1="876.377" y1="423.268" x2="568.25" y2="426.621"/>
			
				<line style="fill:none;stroke:#FFFFFF;stroke-width:2;stroke-linecap:round;stroke-linejoin:round;stroke-miterlimit:10;" x1="895.644" y1="403.576" x2="587.517" y2="406.93"/>
			
				<line style="fill:none;stroke:#FFFFFF;stroke-width:2;stroke-linecap:round;stroke-linejoin:round;stroke-miterlimit:10;" x1="914.911" y1="383.885" x2="606.785" y2="387.239"/>
			
				<line style="fill:none;stroke:#FFFFFF;stroke-width:2;stroke-linecap:round;stroke-linejoin:round;stroke-miterlimit:10;" x1="934.178" y1="364.194" x2="626.052" y2="367.547"/>
			
				<line style="fill:none;stroke:#FFFFFF;stroke-width:2;stroke-linecap:round;stroke-linejoin:round;stroke-miterlimit:10;" x1="953.446" y1="344.503" x2="645.319" y2="347.856"/>
			
				<line style="fill:none;stroke:#FFFFFF;stroke-width:2;stroke-linecap:round;stroke-linejoin:round;stroke-miterlimit:10;" x1="972.713" y1="324.811" x2="664.586" y2="328.165"/>
			
				<line style="fill:none;stroke:#FFFFFF;stroke-width:2;stroke-linecap:round;stroke-linejoin:round;stroke-miterlimit:10;" x1="991.98" y1="305.12" x2="683.854" y2="308.474"/>
			
				<line style="fill:none;stroke:#FFFFFF;stroke-width:2;stroke-linecap:round;stroke-linejoin:round;stroke-miterlimit:10;" x1="1011.247" y1="285.429" x2="703.121" y2="288.782"/>
			
				<line style="fill:none;stroke:#FFFFFF;stroke-width:2;stroke-linecap:round;stroke-linejoin:round;stroke-miterlimit:10;" x1="1030.515" y1="265.737" x2="722.388" y2="269.091"/>
			
				<line style="fill:none;stroke:#FFFFFF;stroke-width:2;stroke-linecap:round;stroke-linejoin:round;stroke-miterlimit:10;" x1="1049.782" y1="246.046" x2="741.655" y2="249.4"/>
			
				<line style="fill:none;stroke:#FFFFFF;stroke-width:2;stroke-linecap:round;stroke-linejoin:round;stroke-miterlimit:10;" x1="1069.049" y1="226.355" x2="760.923" y2="229.709"/>
			
				<line style="fill:none;stroke:#FFFFFF;stroke-width:2;stroke-linecap:round;stroke-linejoin:round;stroke-miterlimit:10;" x1="1088.316" y1="206.664" x2="780.19" y2="210.017"/>
			
				<line style="fill:none;stroke:#FFFFFF;stroke-width:2;stroke-linecap:round;stroke-linejoin:round;stroke-miterlimit:10;" x1="1107.584" y1="186.972" x2="799.457" y2="190.326"/>
		</g>
	</g>
	<g style="display:inline;">
		<defs>
			<path id="SVGID_1_" d="M552.578,305.318c-21.951-9.494-50.517,1.444-60.513,23.171c-9.996,21.727,0.283,50.537,21.775,61.029
				c18.786,9.172,41.219,4.724,61.109-1.713c19.89-6.437,40.063-14.802,60.881-12.892c13.478,1.237,26.672,6.782,40.113,5.194
				c18.861-2.229,34.441-20.362,33.806-39.344c-0.56-16.723-13.712-32.192-29.908-36.043c-17.509-4.163-32.999,6.519-46.289,16.488
				C597.8,348.024,587.296,320.335,552.578,305.318z"/>
		</defs>
		<clipPath id="SVGID_6_">
			<use xlink:href="#SVGID_1_"  style="overflow:visible;"/>
		</clipPath>
		<g style="clip-path:url(#SVGID_6_);">
			
				<line style="fill:none;stroke:#FFFFFF;stroke-width:2;stroke-linecap:round;stroke-linejoin:round;stroke-miterlimit:10;" x1="609.811" y1="488.125" x2="301.685" y2="491.478"/>
			
				<line style="fill:none;stroke:#FFFFFF;stroke-width:2;stroke-linecap:round;stroke-linejoin:round;stroke-miterlimit:10;" x1="629.079" y1="468.433" x2="320.952" y2="471.787"/>
			
				<line style="fill:none;stroke:#FFFFFF;stroke-width:2;stroke-linecap:round;stroke-linejoin:round;stroke-miterlimit:10;" x1="648.346" y1="448.742" x2="340.219" y2="452.096"/>
			
				<line style="fill:none;stroke:#FFFFFF;stroke-width:2;stroke-linecap:round;stroke-linejoin:round;stroke-miterlimit:10;" x1="667.613" y1="429.051" x2="359.487" y2="432.404"/>
			
				<line style="fill:none;stroke:#FFFFFF;stroke-width:2;stroke-linecap:round;stroke-linejoin:round;stroke-miterlimit:10;" x1="686.88" y1="409.359" x2="378.754" y2="412.713"/>
			
				<line style="fill:none;stroke:#FFFFFF;stroke-width:2;stroke-linecap:round;stroke-linejoin:round;stroke-miterlimit:10;" x1="706.148" y1="389.668" x2="398.021" y2="393.022"/>
			
				<line style="fill:none;stroke:#FFFFFF;stroke-width:2;stroke-linecap:round;stroke-linejoin:round;stroke-miterlimit:10;" x1="725.415" y1="369.977" x2="417.288" y2="373.331"/>
			
				<line style="fill:none;stroke:#FFFFFF;stroke-width:2;stroke-linecap:round;stroke-linejoin:round;stroke-miterlimit:10;" x1="744.682" y1="350.286" x2="436.556" y2="353.639"/>
			
				<line style="fill:none;stroke:#FFFFFF;stroke-width:2;stroke-linecap:round;stroke-linejoin:round;stroke-miterlimit:10;" x1="763.949" y1="330.594" x2="455.823" y2="333.948"/>
			
				<line style="fill:none;stroke:#FFFFFF;stroke-width:2;stroke-linecap:round;stroke-linejoin:round;stroke-miterlimit:10;" x1="783.217" y1="310.903" x2="475.09" y2="314.257"/>
			
				<line style="fill:none;stroke:#FFFFFF;stroke-width:2;stroke-linecap:round;stroke-linejoin:round;stroke-miterlimit:10;" x1="802.484" y1="291.212" x2="494.357" y2="294.565"/>
			
				<line style="fill:none;stroke:#FFFFFF;stroke-width:2;stroke-linecap:round;stroke-linejoin:round;stroke-miterlimit:10;" x1="821.751" y1="271.52" x2="513.625" y2="274.874"/>
			
				<line style="fill:none;stroke:#FFFFFF;stroke-width:2;stroke-linecap:round;stroke-linejoin:round;stroke-miterlimit:10;" x1="841.018" y1="251.829" x2="532.892" y2="255.183"/>
			
				<line style="fill:none;stroke:#FFFFFF;stroke-width:2;stroke-linecap:round;stroke-linejoin:round;stroke-miterlimit:10;" x1="860.286" y1="232.138" x2="552.159" y2="235.492"/>
			
				<line style="fill:none;stroke:#FFFFFF;stroke-width:2;stroke-linecap:round;stroke-linejoin:round;stroke-miterlimit:10;" x1="879.553" y1="212.447" x2="571.426" y2="215.8"/>
			
				<line style="fill:none;stroke:#FFFFFF;stroke-width:2;stroke-linecap:round;stroke-linejoin:round;stroke-miterlimit:10;" x1="898.82" y1="192.755" x2="590.694" y2="196.109"/>
			
				<line style="fill:none;stroke:#FFFFFF;stroke-width:2;stroke-linecap:round;stroke-linejoin:round;stroke-miterlimit:10;" x1="918.087" y1="173.064" x2="609.961" y2="176.418"/>
		</g>
	</g>
	<g style="display:inline;">
		<defs>
			<path id="SVGID_2_" d="M738.568,260.337c-14.754-6.332-33.954,0.963-40.673,15.453c-6.719,14.49,0.19,33.704,14.635,40.702
				c12.627,6.117,27.705,3.15,41.073-1.143c13.369-4.293,26.928-9.872,40.92-8.598c9.059,0.825,17.927,4.523,26.961,3.464
				c12.677-1.487,23.149-13.58,22.722-26.239c-0.376-11.153-9.216-21.47-20.102-24.038c-11.768-2.777-22.18,4.347-31.113,10.996
				C768.963,288.819,761.903,270.353,738.568,260.337z"/>
		</defs>
		<clipPath id="SVGID_7_">
			<use xlink:href="#SVGID_2_"  style="overflow:visible;"/>
		</clipPath>
		<g style="clip-path:url(#SVGID_7_);">
			
				<line style="fill:none;stroke:#FFFFFF;stroke-width:2;stroke-linecap:round;stroke-linejoin:round;stroke-miterlimit:10;" x1="777.037" y1="382.255" x2="569.935" y2="384.492"/>
			
				<line style="fill:none;stroke:#FFFFFF;stroke-width:2;stroke-linecap:round;stroke-linejoin:round;stroke-miterlimit:10;" x1="789.987" y1="369.123" x2="582.885" y2="371.36"/>
			
				<line style="fill:none;stroke:#FFFFFF;stroke-width:2;stroke-linecap:round;stroke-linejoin:round;stroke-miterlimit:10;" x1="802.937" y1="355.99" x2="595.835" y2="358.227"/>
			
				<line style="fill:none;stroke:#FFFFFF;stroke-width:2;stroke-linecap:round;stroke-linejoin:round;stroke-miterlimit:10;" x1="815.887" y1="342.858" x2="608.785" y2="345.094"/>
			
				<line style="fill:none;stroke:#FFFFFF;stroke-width:2;stroke-linecap:round;stroke-linejoin:round;stroke-miterlimit:10;" x1="828.837" y1="329.725" x2="621.735" y2="331.962"/>
			
				<line style="fill:none;stroke:#FFFFFF;stroke-width:2;stroke-linecap:round;stroke-linejoin:round;stroke-miterlimit:10;" x1="841.787" y1="316.593" x2="634.685" y2="318.829"/>
			
				<line style="fill:none;stroke:#FFFFFF;stroke-width:2;stroke-linecap:round;stroke-linejoin:round;stroke-miterlimit:10;" x1="854.738" y1="303.46" x2="647.635" y2="305.697"/>
			
				<line style="fill:none;stroke:#FFFFFF;stroke-width:2;stroke-linecap:round;stroke-linejoin:round;stroke-miterlimit:10;" x1="867.688" y1="290.327" x2="660.586" y2="292.564"/>
			
				<line style="fill:none;stroke:#FFFFFF;stroke-width:2;stroke-linecap:round;stroke-linejoin:round;stroke-miterlimit:10;" x1="880.638" y1="277.195" x2="673.536" y2="279.432"/>
			
				<line style="fill:none;stroke:#FFFFFF;stroke-width:2;stroke-linecap:round;stroke-linejoin:round;stroke-miterlimit:10;" x1="893.588" y1="264.062" x2="686.486" y2="266.299"/>
			
				<line style="fill:none;stroke:#FFFFFF;stroke-width:2;stroke-linecap:round;stroke-linejoin:round;stroke-miterlimit:10;" x1="906.538" y1="250.93" x2="699.436" y2="253.166"/>
			
				<line style="fill:none;stroke:#FFFFFF;stroke-width:2;stroke-linecap:round;stroke-linejoin:round;stroke-miterlimit:10;" x1="919.488" y1="237.797" x2="712.386" y2="240.034"/>
			
				<line style="fill:none;stroke:#FFFFFF;stroke-width:2;stroke-linecap:round;stroke-linejoin:round;stroke-miterlimit:10;" x1="932.439" y1="224.665" x2="725.336" y2="226.901"/>
			
				<line style="fill:none;stroke:#FFFFFF;stroke-width:2;stroke-linecap:round;stroke-linejoin:round;stroke-miterlimit:10;" x1="945.389" y1="211.532" x2="738.287" y2="213.769"/>
			
				<line style="fill:none;stroke:#FFFFFF;stroke-width:2;stroke-linecap:round;stroke-linejoin:round;stroke-miterlimit:10;" x1="958.339" y1="198.399" x2="751.237" y2="200.636"/>
			
				<line style="fill:none;stroke:#FFFFFF;stroke-width:2;stroke-linecap:round;stroke-linejoin:round;stroke-miterlimit:10;" x1="971.289" y1="185.267" x2="764.187" y2="187.504"/>
			
				<line style="fill:none;stroke:#FFFFFF;stroke-width:2;stroke-linecap:round;stroke-linejoin:round;stroke-miterlimit:10;" x1="984.239" y1="172.134" x2="777.137" y2="174.371"/>
		</g>
	</g>
	<g style="display:inline;">
		<defs>
			<path id="SVGID_4_" d="M653.895,172.139c-21.951-9.494-50.517,1.444-60.513,23.171s0.283,50.537,21.775,61.029
				c18.786,9.172,41.219,4.724,61.109-1.713c19.89-6.437,40.063-14.802,60.881-12.892c13.478,1.236,26.672,6.782,40.113,5.194
				c18.861-2.229,34.441-20.363,33.806-39.344c-0.56-16.723-13.712-32.192-29.908-36.043c-17.509-4.163-32.999,6.519-46.289,16.488
				C699.118,214.846,688.614,187.156,653.895,172.139z"/>
		</defs>
		<clipPath id="SVGID_8_">
			<use xlink:href="#SVGID_4_"  style="overflow:visible;"/>
		</clipPath>
		<g style="clip-path:url(#SVGID_8_);">
			
				<line style="fill:none;stroke:#FFFFFF;stroke-width:2;stroke-linecap:round;stroke-linejoin:round;stroke-miterlimit:10;" x1="711.129" y1="354.946" x2="403.003" y2="358.299"/>
			
				<line style="fill:none;stroke:#FFFFFF;stroke-width:2;stroke-linecap:round;stroke-linejoin:round;stroke-miterlimit:10;" x1="730.396" y1="335.254" x2="422.27" y2="338.608"/>
			
				<line style="fill:none;stroke:#FFFFFF;stroke-width:2;stroke-linecap:round;stroke-linejoin:round;stroke-miterlimit:10;" x1="749.664" y1="315.563" x2="441.537" y2="318.917"/>
			
				<line style="fill:none;stroke:#FFFFFF;stroke-width:2;stroke-linecap:round;stroke-linejoin:round;stroke-miterlimit:10;" x1="768.931" y1="295.872" x2="460.804" y2="299.226"/>
			
				<line style="fill:none;stroke:#FFFFFF;stroke-width:2;stroke-linecap:round;stroke-linejoin:round;stroke-miterlimit:10;" x1="788.198" y1="276.181" x2="480.072" y2="279.534"/>
			
				<line style="fill:none;stroke:#FFFFFF;stroke-width:2;stroke-linecap:round;stroke-linejoin:round;stroke-miterlimit:10;" x1="807.465" y1="256.489" x2="499.339" y2="259.843"/>
			
				<line style="fill:none;stroke:#FFFFFF;stroke-width:2;stroke-linecap:round;stroke-linejoin:round;stroke-miterlimit:10;" x1="826.733" y1="236.798" x2="518.606" y2="240.152"/>
			
				<line style="fill:none;stroke:#FFFFFF;stroke-width:2;stroke-linecap:round;stroke-linejoin:round;stroke-miterlimit:10;" x1="846" y1="217.107" x2="537.873" y2="220.46"/>
			
				<line style="fill:none;stroke:#FFFFFF;stroke-width:2;stroke-linecap:round;stroke-linejoin:round;stroke-miterlimit:10;" x1="865.267" y1="197.415" x2="557.141" y2="200.769"/>
			
				<line style="fill:none;stroke:#FFFFFF;stroke-width:2;stroke-linecap:round;stroke-linejoin:round;stroke-miterlimit:10;" x1="884.534" y1="177.724" x2="576.408" y2="181.078"/>
			
				<line style="fill:none;stroke:#FFFFFF;stroke-width:2;stroke-linecap:round;stroke-linejoin:round;stroke-miterlimit:10;" x1="903.802" y1="158.033" x2="595.675" y2="161.387"/>
			
				<line style="fill:none;stroke:#FFFFFF;stroke-width:2;stroke-linecap:round;stroke-linejoin:round;stroke-miterlimit:10;" x1="923.069" y1="138.342" x2="614.942" y2="141.695"/>
			
				<line style="fill:none;stroke:#FFFFFF;stroke-width:2;stroke-linecap:round;stroke-linejoin:round;stroke-miterlimit:10;" x1="942.336" y1="118.65" x2="634.21" y2="122.004"/>
			
				<line style="fill:none;stroke:#FFFFFF;stroke-width:2;stroke-linecap:round;stroke-linejoin:round;stroke-miterlimit:10;" x1="961.603" y1="98.959" x2="653.477" y2="102.313"/>
			
				<line style="fill:none;stroke:#FFFFFF;stroke-width:2;stroke-linecap:round;stroke-linejoin:round;stroke-miterlimit:10;" x1="980.871" y1="79.268" x2="672.744" y2="82.622"/>
			
				<line style="fill:none;stroke:#FFFFFF;stroke-width:2;stroke-linecap:round;stroke-linejoin:round;stroke-miterlimit:10;" x1="1000.138" y1="59.577" x2="692.011" y2="62.93"/>
			
				<line style="fill:none;stroke:#FFFFFF;stroke-width:2;stroke-linecap:round;stroke-linejoin:round;stroke-miterlimit:10;" x1="1019.405" y1="39.885" x2="711.279" y2="43.239"/>
		</g>
	</g>
	<g style="display:inline;">
		<ellipse style="fill:#FFFFFF;" cx="582.118" cy="193.733" rx="0.633" ry="0.827"/>
		<ellipse style="fill:#FFFFFF;" cx="582.118" cy="200.351" rx="0.633" ry="0.827"/>
		<ellipse style="fill:#FFFFFF;" cx="582.118" cy="206.968" rx="0.633" ry="0.827"/>
		<ellipse style="fill:#FFFFFF;" cx="582.118" cy="213.586" rx="0.633" ry="0.827"/>
		<ellipse style="fill:#FFFFFF;" cx="582.118" cy="220.203" rx="0.633" ry="0.827"/>
		<ellipse style="fill:#FFFFFF;" cx="582.118" cy="226.821" rx="0.633" ry="0.827"/>
		<ellipse style="fill:#FFFFFF;" cx="582.118" cy="233.438" rx="0.633" ry="0.827"/>
		<ellipse style="fill:#FFFFFF;" cx="582.118" cy="240.056" rx="0.633" ry="0.827"/>
		<ellipse style="fill:#FFFFFF;" cx="582.118" cy="246.674" rx="0.633" ry="0.827"/>
		<ellipse style="fill:#FFFFFF;" cx="582.118" cy="253.291" rx="0.633" ry="0.827"/>
		<ellipse style="fill:#FFFFFF;" cx="582.118" cy="259.909" rx="0.633" ry="0.827"/>
		<ellipse style="fill:#FFFFFF;" cx="582.118" cy="266.526" rx="0.633" ry="0.827"/>
		<ellipse style="fill:#FFFFFF;" cx="582.118" cy="273.144" rx="0.633" ry="0.827"/>
		<ellipse style="fill:#FFFFFF;" cx="582.118" cy="279.761" rx="0.633" ry="0.827"/>
		<ellipse style="fill:#FFFFFF;" cx="582.118" cy="286.379" rx="0.633" ry="0.827"/>
		<ellipse style="fill:#FFFFFF;" cx="582.118" cy="292.997" rx="0.633" ry="0.827"/>
		<ellipse style="fill:#FFFFFF;" cx="576.664" cy="193.733" rx="0.633" ry="0.827"/>
		<ellipse style="fill:#FFFFFF;" cx="576.664" cy="200.351" rx="0.633" ry="0.827"/>
		<ellipse style="fill:#FFFFFF;" cx="576.664" cy="206.968" rx="0.633" ry="0.827"/>
		<ellipse style="fill:#FFFFFF;" cx="576.664" cy="213.586" rx="0.633" ry="0.827"/>
		<ellipse style="fill:#FFFFFF;" cx="576.664" cy="220.203" rx="0.633" ry="0.827"/>
		<ellipse style="fill:#FFFFFF;" cx="576.664" cy="226.821" rx="0.633" ry="0.827"/>
		<ellipse style="fill:#FFFFFF;" cx="576.664" cy="233.438" rx="0.633" ry="0.827"/>
		<ellipse style="fill:#FFFFFF;" cx="576.664" cy="240.056" rx="0.633" ry="0.827"/>
		<ellipse style="fill:#FFFFFF;" cx="576.664" cy="246.674" rx="0.633" ry="0.827"/>
		<ellipse style="fill:#FFFFFF;" cx="576.664" cy="253.291" rx="0.633" ry="0.827"/>
		<ellipse style="fill:#FFFFFF;" cx="576.664" cy="259.909" rx="0.633" ry="0.827"/>
		<ellipse style="fill:#FFFFFF;" cx="576.664" cy="266.526" rx="0.633" ry="0.827"/>
		<ellipse style="fill:#FFFFFF;" cx="576.664" cy="273.144" rx="0.633" ry="0.827"/>
		<ellipse style="fill:#FFFFFF;" cx="576.664" cy="279.761" rx="0.633" ry="0.827"/>
		<ellipse style="fill:#FFFFFF;" cx="576.664" cy="286.379" rx="0.633" ry="0.827"/>
		<ellipse style="fill:#FFFFFF;" cx="576.664" cy="292.997" rx="0.633" ry="0.827"/>
		<ellipse style="fill:#FFFFFF;" cx="571.209" cy="193.733" rx="0.633" ry="0.827"/>
		<ellipse style="fill:#FFFFFF;" cx="571.209" cy="200.351" rx="0.633" ry="0.827"/>
		<ellipse style="fill:#FFFFFF;" cx="571.209" cy="206.968" rx="0.633" ry="0.827"/>
		<ellipse style="fill:#FFFFFF;" cx="571.209" cy="213.586" rx="0.633" ry="0.827"/>
		<ellipse style="fill:#FFFFFF;" cx="571.209" cy="220.203" rx="0.633" ry="0.827"/>
		<ellipse style="fill:#FFFFFF;" cx="571.209" cy="226.821" rx="0.633" ry="0.827"/>
		<ellipse style="fill:#FFFFFF;" cx="571.209" cy="233.438" rx="0.633" ry="0.827"/>
		<ellipse style="fill:#FFFFFF;" cx="571.209" cy="240.056" rx="0.633" ry="0.827"/>
		<ellipse style="fill:#FFFFFF;" cx="571.209" cy="246.674" rx="0.633" ry="0.827"/>
		<ellipse style="fill:#FFFFFF;" cx="571.209" cy="253.291" rx="0.633" ry="0.827"/>
		<ellipse style="fill:#FFFFFF;" cx="571.209" cy="259.909" rx="0.633" ry="0.827"/>
		<ellipse style="fill:#FFFFFF;" cx="571.209" cy="266.526" rx="0.633" ry="0.827"/>
		<ellipse style="fill:#FFFFFF;" cx="571.209" cy="273.144" rx="0.633" ry="0.827"/>
		<ellipse style="fill:#FFFFFF;" cx="571.209" cy="279.761" rx="0.633" ry="0.827"/>
		<ellipse style="fill:#FFFFFF;" cx="571.209" cy="286.379" rx="0.633" ry="0.827"/>
		<ellipse style="fill:#FFFFFF;" cx="571.209" cy="292.997" rx="0.633" ry="0.827"/>
		<ellipse style="fill:#FFFFFF;" cx="565.755" cy="193.733" rx="0.633" ry="0.827"/>
		<ellipse style="fill:#FFFFFF;" cx="565.755" cy="200.351" rx="0.633" ry="0.827"/>
		<ellipse style="fill:#FFFFFF;" cx="565.755" cy="206.968" rx="0.633" ry="0.827"/>
		<ellipse style="fill:#FFFFFF;" cx="565.755" cy="213.586" rx="0.633" ry="0.827"/>
		<ellipse style="fill:#FFFFFF;" cx="565.755" cy="220.203" rx="0.633" ry="0.827"/>
		<ellipse style="fill:#FFFFFF;" cx="565.755" cy="226.821" rx="0.633" ry="0.827"/>
		<ellipse style="fill:#FFFFFF;" cx="565.755" cy="233.438" rx="0.633" ry="0.827"/>
		<ellipse style="fill:#FFFFFF;" cx="565.755" cy="240.056" rx="0.633" ry="0.827"/>
		<ellipse style="fill:#FFFFFF;" cx="565.755" cy="246.674" rx="0.633" ry="0.827"/>
		<ellipse style="fill:#FFFFFF;" cx="565.755" cy="253.291" rx="0.633" ry="0.827"/>
		<ellipse style="fill:#FFFFFF;" cx="565.755" cy="259.909" rx="0.633" ry="0.827"/>
		<ellipse style="fill:#FFFFFF;" cx="565.755" cy="266.526" rx="0.633" ry="0.827"/>
		<ellipse style="fill:#FFFFFF;" cx="565.755" cy="273.144" rx="0.633" ry="0.827"/>
		<ellipse style="fill:#FFFFFF;" cx="565.755" cy="279.761" rx="0.633" ry="0.827"/>
		<ellipse style="fill:#FFFFFF;" cx="565.755" cy="286.379" rx="0.633" ry="0.827"/>
		<ellipse style="fill:#FFFFFF;" cx="565.755" cy="292.997" rx="0.633" ry="0.827"/>
		<ellipse style="fill:#FFFFFF;" cx="560.3" cy="193.733" rx="0.633" ry="0.827"/>
		<ellipse style="fill:#FFFFFF;" cx="560.3" cy="200.351" rx="0.633" ry="0.827"/>
		<ellipse style="fill:#FFFFFF;" cx="560.3" cy="206.968" rx="0.633" ry="0.827"/>
		<ellipse style="fill:#FFFFFF;" cx="560.3" cy="213.586" rx="0.633" ry="0.827"/>
		<ellipse style="fill:#FFFFFF;" cx="560.3" cy="220.203" rx="0.633" ry="0.827"/>
		<ellipse style="fill:#FFFFFF;" cx="560.3" cy="226.821" rx="0.633" ry="0.827"/>
		<ellipse style="fill:#FFFFFF;" cx="560.3" cy="233.438" rx="0.633" ry="0.827"/>
		<ellipse style="fill:#FFFFFF;" cx="560.3" cy="240.056" rx="0.633" ry="0.827"/>
		<ellipse style="fill:#FFFFFF;" cx="560.3" cy="246.674" rx="0.633" ry="0.827"/>
		<ellipse style="fill:#FFFFFF;" cx="560.3" cy="253.291" rx="0.633" ry="0.827"/>
		<ellipse style="fill:#FFFFFF;" cx="560.3" cy="259.909" rx="0.633" ry="0.827"/>
		<ellipse style="fill:#FFFFFF;" cx="560.3" cy="266.526" rx="0.633" ry="0.827"/>
		<ellipse style="fill:#FFFFFF;" cx="560.3" cy="273.144" rx="0.633" ry="0.827"/>
		<ellipse style="fill:#FFFFFF;" cx="560.3" cy="279.761" rx="0.633" ry="0.827"/>
		<ellipse style="fill:#FFFFFF;" cx="560.3" cy="286.379" rx="0.633" ry="0.827"/>
		<ellipse style="fill:#FFFFFF;" cx="560.3" cy="292.997" rx="0.633" ry="0.827"/>
		<ellipse style="fill:#FFFFFF;" cx="554.846" cy="193.733" rx="0.633" ry="0.827"/>
		<ellipse style="fill:#FFFFFF;" cx="554.846" cy="200.351" rx="0.633" ry="0.827"/>
		<ellipse style="fill:#FFFFFF;" cx="554.846" cy="206.968" rx="0.633" ry="0.827"/>
		<ellipse style="fill:#FFFFFF;" cx="554.846" cy="213.586" rx="0.633" ry="0.827"/>
		<ellipse style="fill:#FFFFFF;" cx="554.846" cy="220.203" rx="0.633" ry="0.827"/>
		<ellipse style="fill:#FFFFFF;" cx="554.846" cy="226.821" rx="0.633" ry="0.827"/>
		<ellipse style="fill:#FFFFFF;" cx="554.846" cy="233.438" rx="0.633" ry="0.827"/>
		<ellipse style="fill:#FFFFFF;" cx="554.846" cy="240.056" rx="0.633" ry="0.827"/>
		<ellipse style="fill:#FFFFFF;" cx="554.846" cy="246.674" rx="0.633" ry="0.827"/>
		<ellipse style="fill:#FFFFFF;" cx="554.846" cy="253.291" rx="0.633" ry="0.827"/>
		<ellipse style="fill:#FFFFFF;" cx="554.846" cy="259.909" rx="0.633" ry="0.827"/>
		<ellipse style="fill:#FFFFFF;" cx="554.846" cy="266.526" rx="0.633" ry="0.827"/>
		<ellipse style="fill:#FFFFFF;" cx="554.846" cy="273.144" rx="0.633" ry="0.827"/>
		<ellipse style="fill:#FFFFFF;" cx="554.846" cy="279.761" rx="0.633" ry="0.827"/>
		<ellipse style="fill:#FFFFFF;" cx="554.846" cy="286.379" rx="0.633" ry="0.827"/>
		<ellipse style="fill:#FFFFFF;" cx="554.846" cy="292.997" rx="0.633" ry="0.827"/>
		<ellipse style="fill:#FFFFFF;" cx="549.391" cy="193.733" rx="0.633" ry="0.827"/>
		<ellipse style="fill:#FFFFFF;" cx="549.391" cy="200.351" rx="0.633" ry="0.827"/>
		<ellipse style="fill:#FFFFFF;" cx="549.391" cy="206.968" rx="0.633" ry="0.827"/>
		<ellipse style="fill:#FFFFFF;" cx="549.391" cy="213.586" rx="0.633" ry="0.827"/>
		<ellipse style="fill:#FFFFFF;" cx="549.391" cy="220.203" rx="0.633" ry="0.827"/>
		<ellipse style="fill:#FFFFFF;" cx="549.391" cy="226.821" rx="0.633" ry="0.827"/>
		<ellipse style="fill:#FFFFFF;" cx="549.391" cy="233.438" rx="0.633" ry="0.827"/>
		<ellipse style="fill:#FFFFFF;" cx="549.391" cy="240.056" rx="0.633" ry="0.827"/>
		<ellipse style="fill:#FFFFFF;" cx="549.391" cy="246.674" rx="0.633" ry="0.827"/>
		<ellipse style="fill:#FFFFFF;" cx="549.391" cy="253.291" rx="0.633" ry="0.827"/>
		<ellipse style="fill:#FFFFFF;" cx="549.391" cy="259.909" rx="0.633" ry="0.827"/>
		<ellipse style="fill:#FFFFFF;" cx="549.391" cy="266.526" rx="0.633" ry="0.827"/>
		<ellipse style="fill:#FFFFFF;" cx="549.391" cy="273.144" rx="0.633" ry="0.827"/>
		<ellipse style="fill:#FFFFFF;" cx="549.391" cy="279.761" rx="0.633" ry="0.827"/>
		<ellipse style="fill:#FFFFFF;" cx="549.391" cy="286.379" rx="0.633" ry="0.827"/>
		<ellipse style="fill:#FFFFFF;" cx="549.391" cy="292.997" rx="0.633" ry="0.827"/>
		<ellipse style="fill:#FFFFFF;" cx="543.937" cy="193.733" rx="0.633" ry="0.827"/>
		<ellipse style="fill:#FFFFFF;" cx="543.937" cy="200.351" rx="0.633" ry="0.827"/>
		<ellipse style="fill:#FFFFFF;" cx="543.937" cy="206.968" rx="0.633" ry="0.827"/>
		<ellipse style="fill:#FFFFFF;" cx="543.937" cy="213.586" rx="0.633" ry="0.827"/>
		<ellipse style="fill:#FFFFFF;" cx="543.937" cy="220.203" rx="0.633" ry="0.827"/>
		<ellipse style="fill:#FFFFFF;" cx="543.937" cy="226.821" rx="0.633" ry="0.827"/>
		<ellipse style="fill:#FFFFFF;" cx="543.937" cy="233.438" rx="0.633" ry="0.827"/>
		<ellipse style="fill:#FFFFFF;" cx="543.937" cy="240.056" rx="0.633" ry="0.827"/>
		<ellipse style="fill:#FFFFFF;" cx="543.937" cy="246.674" rx="0.633" ry="0.827"/>
		<ellipse style="fill:#FFFFFF;" cx="543.937" cy="253.291" rx="0.633" ry="0.827"/>
		<ellipse style="fill:#FFFFFF;" cx="543.937" cy="259.909" rx="0.633" ry="0.827"/>
		<ellipse style="fill:#FFFFFF;" cx="543.937" cy="266.526" rx="0.633" ry="0.827"/>
		<ellipse style="fill:#FFFFFF;" cx="543.937" cy="273.144" rx="0.633" ry="0.827"/>
		<ellipse style="fill:#FFFFFF;" cx="543.937" cy="279.761" rx="0.633" ry="0.827"/>
		<ellipse style="fill:#FFFFFF;" cx="543.937" cy="286.379" rx="0.633" ry="0.827"/>
		<ellipse style="fill:#FFFFFF;" cx="543.937" cy="292.997" rx="0.633" ry="0.827"/>
		<path style="fill:#FFFFFF;" d="M539.115,193.733c0,0.457-0.284,0.827-0.633,0.827c-0.35,0-0.633-0.37-0.633-0.827
			s0.283-0.827,0.633-0.827C538.832,192.906,539.115,193.276,539.115,193.733z"/>
		<path style="fill:#FFFFFF;" d="M539.115,200.351c0,0.457-0.284,0.827-0.633,0.827c-0.35,0-0.633-0.37-0.633-0.827
			c0-0.457,0.283-0.827,0.633-0.827C538.832,199.523,539.115,199.894,539.115,200.351z"/>
		<path style="fill:#FFFFFF;" d="M539.115,206.968c0,0.457-0.284,0.827-0.633,0.827c-0.35,0-0.633-0.37-0.633-0.827
			c0-0.457,0.283-0.827,0.633-0.827C538.832,206.141,539.115,206.511,539.115,206.968z"/>
		<path style="fill:#FFFFFF;" d="M539.115,213.586c0,0.457-0.284,0.827-0.633,0.827c-0.35,0-0.633-0.37-0.633-0.827
			s0.283-0.827,0.633-0.827C538.832,212.758,539.115,213.129,539.115,213.586z"/>
		<path style="fill:#FFFFFF;" d="M539.115,220.203c0,0.457-0.284,0.827-0.633,0.827c-0.35,0-0.633-0.37-0.633-0.827
			c0-0.457,0.283-0.827,0.633-0.827C538.832,219.376,539.115,219.746,539.115,220.203z"/>
		<path style="fill:#FFFFFF;" d="M539.115,226.821c0,0.457-0.284,0.827-0.633,0.827c-0.35,0-0.633-0.37-0.633-0.827
			s0.283-0.827,0.633-0.827C538.832,225.994,539.115,226.364,539.115,226.821z"/>
		<path style="fill:#FFFFFF;" d="M539.115,233.438c0,0.457-0.284,0.827-0.633,0.827c-0.35,0-0.633-0.37-0.633-0.827
			c0-0.457,0.283-0.827,0.633-0.827C538.832,232.611,539.115,232.982,539.115,233.438z"/>
		<path style="fill:#FFFFFF;" d="M539.115,240.056c0,0.457-0.284,0.827-0.633,0.827c-0.35,0-0.633-0.37-0.633-0.827
			c0-0.457,0.283-0.827,0.633-0.827C538.832,239.229,539.115,239.599,539.115,240.056z"/>
		<path style="fill:#FFFFFF;" d="M539.115,246.674c0,0.457-0.284,0.827-0.633,0.827c-0.35,0-0.633-0.37-0.633-0.827
			s0.283-0.827,0.633-0.827C538.832,245.846,539.115,246.217,539.115,246.674z"/>
		<path style="fill:#FFFFFF;" d="M539.115,253.291c0,0.457-0.284,0.827-0.633,0.827c-0.35,0-0.633-0.37-0.633-0.827
			s0.283-0.827,0.633-0.827C538.832,252.464,539.115,252.834,539.115,253.291z"/>
		<path style="fill:#FFFFFF;" d="M539.115,259.909c0,0.457-0.284,0.827-0.633,0.827c-0.35,0-0.633-0.37-0.633-0.827
			s0.283-0.827,0.633-0.827C538.832,259.081,539.115,259.452,539.115,259.909z"/>
		<path style="fill:#FFFFFF;" d="M539.115,266.526c0,0.457-0.284,0.827-0.633,0.827c-0.35,0-0.633-0.37-0.633-0.827
			c0-0.457,0.283-0.827,0.633-0.827C538.832,265.699,539.115,266.069,539.115,266.526z"/>
		<path style="fill:#FFFFFF;" d="M539.115,273.144c0,0.457-0.284,0.827-0.633,0.827c-0.35,0-0.633-0.37-0.633-0.827
			s0.283-0.827,0.633-0.827C538.832,272.317,539.115,272.687,539.115,273.144z"/>
		<path style="fill:#FFFFFF;" d="M539.115,279.761c0,0.457-0.284,0.827-0.633,0.827c-0.35,0-0.633-0.37-0.633-0.827
			s0.283-0.827,0.633-0.827C538.832,278.934,539.115,279.305,539.115,279.761z"/>
		<path style="fill:#FFFFFF;" d="M539.115,286.379c0,0.457-0.284,0.827-0.633,0.827c-0.35,0-0.633-0.37-0.633-0.827
			c0-0.457,0.283-0.827,0.633-0.827C538.832,285.552,539.115,285.922,539.115,286.379z"/>
		<path style="fill:#FFFFFF;" d="M539.115,292.997c0,0.457-0.284,0.827-0.633,0.827c-0.35,0-0.633-0.37-0.633-0.827
			s0.283-0.827,0.633-0.827C538.832,292.169,539.115,292.54,539.115,292.997z"/>
		<ellipse style="fill:#FFFFFF;" cx="533.028" cy="193.733" rx="0.633" ry="0.827"/>
		<ellipse style="fill:#FFFFFF;" cx="533.028" cy="200.351" rx="0.633" ry="0.827"/>
		<ellipse style="fill:#FFFFFF;" cx="533.028" cy="206.968" rx="0.633" ry="0.827"/>
		<ellipse style="fill:#FFFFFF;" cx="533.028" cy="213.586" rx="0.633" ry="0.827"/>
		<ellipse style="fill:#FFFFFF;" cx="533.028" cy="220.203" rx="0.633" ry="0.827"/>
		<ellipse style="fill:#FFFFFF;" cx="533.028" cy="226.821" rx="0.633" ry="0.827"/>
		<ellipse style="fill:#FFFFFF;" cx="533.028" cy="233.438" rx="0.633" ry="0.827"/>
		<ellipse style="fill:#FFFFFF;" cx="533.028" cy="240.056" rx="0.633" ry="0.827"/>
		<ellipse style="fill:#FFFFFF;" cx="533.028" cy="246.674" rx="0.633" ry="0.827"/>
		<ellipse style="fill:#FFFFFF;" cx="533.028" cy="253.291" rx="0.633" ry="0.827"/>
		<ellipse style="fill:#FFFFFF;" cx="533.028" cy="259.909" rx="0.633" ry="0.827"/>
		<ellipse style="fill:#FFFFFF;" cx="533.028" cy="266.526" rx="0.633" ry="0.827"/>
		<ellipse style="fill:#FFFFFF;" cx="533.028" cy="273.144" rx="0.633" ry="0.827"/>
		<ellipse style="fill:#FFFFFF;" cx="533.028" cy="279.761" rx="0.633" ry="0.827"/>
		<ellipse style="fill:#FFFFFF;" cx="533.028" cy="286.379" rx="0.633" ry="0.827"/>
		<ellipse style="fill:#FFFFFF;" cx="533.028" cy="292.997" rx="0.633" ry="0.827"/>
		<ellipse style="fill:#FFFFFF;" cx="527.573" cy="193.733" rx="0.633" ry="0.827"/>
		<ellipse style="fill:#FFFFFF;" cx="527.573" cy="200.351" rx="0.633" ry="0.827"/>
		<ellipse style="fill:#FFFFFF;" cx="527.573" cy="206.968" rx="0.633" ry="0.827"/>
		<ellipse style="fill:#FFFFFF;" cx="527.573" cy="213.586" rx="0.633" ry="0.827"/>
		<ellipse style="fill:#FFFFFF;" cx="527.573" cy="220.203" rx="0.633" ry="0.827"/>
		<ellipse style="fill:#FFFFFF;" cx="527.573" cy="226.821" rx="0.633" ry="0.827"/>
		<ellipse style="fill:#FFFFFF;" cx="527.573" cy="233.438" rx="0.633" ry="0.827"/>
		<ellipse style="fill:#FFFFFF;" cx="527.573" cy="240.056" rx="0.633" ry="0.827"/>
		<ellipse style="fill:#FFFFFF;" cx="527.573" cy="246.674" rx="0.633" ry="0.827"/>
		<ellipse style="fill:#FFFFFF;" cx="527.573" cy="253.291" rx="0.633" ry="0.827"/>
		<ellipse style="fill:#FFFFFF;" cx="527.573" cy="259.909" rx="0.633" ry="0.827"/>
		<ellipse style="fill:#FFFFFF;" cx="527.573" cy="266.526" rx="0.633" ry="0.827"/>
		<ellipse style="fill:#FFFFFF;" cx="527.573" cy="273.144" rx="0.633" ry="0.827"/>
		<ellipse style="fill:#FFFFFF;" cx="527.573" cy="279.761" rx="0.633" ry="0.827"/>
		<ellipse style="fill:#FFFFFF;" cx="527.573" cy="286.379" rx="0.633" ry="0.827"/>
		<ellipse style="fill:#FFFFFF;" cx="527.573" cy="292.997" rx="0.633" ry="0.827"/>
		<ellipse style="fill:#FFFFFF;" cx="522.119" cy="193.733" rx="0.633" ry="0.827"/>
		<ellipse style="fill:#FFFFFF;" cx="522.119" cy="200.351" rx="0.633" ry="0.827"/>
		<ellipse style="fill:#FFFFFF;" cx="522.119" cy="206.968" rx="0.633" ry="0.827"/>
		<ellipse style="fill:#FFFFFF;" cx="522.119" cy="213.586" rx="0.633" ry="0.827"/>
		<ellipse style="fill:#FFFFFF;" cx="522.119" cy="220.203" rx="0.633" ry="0.827"/>
		<ellipse style="fill:#FFFFFF;" cx="522.119" cy="226.821" rx="0.633" ry="0.827"/>
		<ellipse style="fill:#FFFFFF;" cx="522.119" cy="233.438" rx="0.633" ry="0.827"/>
		<ellipse style="fill:#FFFFFF;" cx="522.119" cy="240.056" rx="0.633" ry="0.827"/>
		<ellipse style="fill:#FFFFFF;" cx="522.119" cy="246.674" rx="0.633" ry="0.827"/>
		<ellipse style="fill:#FFFFFF;" cx="522.119" cy="253.291" rx="0.633" ry="0.827"/>
		<ellipse style="fill:#FFFFFF;" cx="522.119" cy="259.909" rx="0.633" ry="0.827"/>
		<ellipse style="fill:#FFFFFF;" cx="522.119" cy="266.526" rx="0.633" ry="0.827"/>
		<ellipse style="fill:#FFFFFF;" cx="522.119" cy="273.144" rx="0.633" ry="0.827"/>
		<ellipse style="fill:#FFFFFF;" cx="522.119" cy="279.761" rx="0.633" ry="0.827"/>
		<ellipse style="fill:#FFFFFF;" cx="522.119" cy="286.379" rx="0.633" ry="0.827"/>
		<ellipse style="fill:#FFFFFF;" cx="522.119" cy="292.997" rx="0.633" ry="0.827"/>
		<ellipse style="fill:#FFFFFF;" cx="516.664" cy="193.733" rx="0.633" ry="0.827"/>
		<ellipse style="fill:#FFFFFF;" cx="516.664" cy="200.351" rx="0.633" ry="0.827"/>
		<ellipse style="fill:#FFFFFF;" cx="516.664" cy="206.968" rx="0.633" ry="0.827"/>
		<ellipse style="fill:#FFFFFF;" cx="516.664" cy="213.586" rx="0.633" ry="0.827"/>
		<ellipse style="fill:#FFFFFF;" cx="516.664" cy="220.203" rx="0.633" ry="0.827"/>
		<ellipse style="fill:#FFFFFF;" cx="516.664" cy="226.821" rx="0.633" ry="0.827"/>
		<ellipse style="fill:#FFFFFF;" cx="516.664" cy="233.438" rx="0.633" ry="0.827"/>
		<ellipse style="fill:#FFFFFF;" cx="516.664" cy="240.056" rx="0.633" ry="0.827"/>
		<ellipse style="fill:#FFFFFF;" cx="516.664" cy="246.674" rx="0.633" ry="0.827"/>
		<ellipse style="fill:#FFFFFF;" cx="516.664" cy="253.291" rx="0.633" ry="0.827"/>
		<ellipse style="fill:#FFFFFF;" cx="516.664" cy="259.909" rx="0.633" ry="0.827"/>
		<ellipse style="fill:#FFFFFF;" cx="516.664" cy="266.526" rx="0.633" ry="0.827"/>
		<ellipse style="fill:#FFFFFF;" cx="516.664" cy="273.144" rx="0.633" ry="0.827"/>
		<ellipse style="fill:#FFFFFF;" cx="516.664" cy="279.761" rx="0.633" ry="0.827"/>
		<ellipse style="fill:#FFFFFF;" cx="516.664" cy="286.379" rx="0.633" ry="0.827"/>
		<ellipse style="fill:#FFFFFF;" cx="516.664" cy="292.997" rx="0.633" ry="0.827"/>
		<ellipse style="fill:#FFFFFF;" cx="511.21" cy="193.733" rx="0.633" ry="0.827"/>
		<ellipse style="fill:#FFFFFF;" cx="511.21" cy="200.351" rx="0.633" ry="0.827"/>
		<ellipse style="fill:#FFFFFF;" cx="511.21" cy="206.968" rx="0.633" ry="0.827"/>
		<ellipse style="fill:#FFFFFF;" cx="511.21" cy="213.586" rx="0.633" ry="0.827"/>
		<ellipse style="fill:#FFFFFF;" cx="511.21" cy="220.203" rx="0.633" ry="0.827"/>
		<ellipse style="fill:#FFFFFF;" cx="511.21" cy="226.821" rx="0.633" ry="0.827"/>
		<ellipse style="fill:#FFFFFF;" cx="511.21" cy="233.438" rx="0.633" ry="0.827"/>
		<ellipse style="fill:#FFFFFF;" cx="511.21" cy="240.056" rx="0.633" ry="0.827"/>
		<ellipse style="fill:#FFFFFF;" cx="511.21" cy="246.674" rx="0.633" ry="0.827"/>
		<ellipse style="fill:#FFFFFF;" cx="511.21" cy="253.291" rx="0.633" ry="0.827"/>
		<ellipse style="fill:#FFFFFF;" cx="511.21" cy="259.909" rx="0.633" ry="0.827"/>
		<ellipse style="fill:#FFFFFF;" cx="511.21" cy="266.526" rx="0.633" ry="0.827"/>
		<ellipse style="fill:#FFFFFF;" cx="511.21" cy="273.144" rx="0.633" ry="0.827"/>
		<ellipse style="fill:#FFFFFF;" cx="511.21" cy="279.761" rx="0.633" ry="0.827"/>
		<ellipse style="fill:#FFFFFF;" cx="511.21" cy="286.379" rx="0.633" ry="0.827"/>
		<ellipse style="fill:#FFFFFF;" cx="511.21" cy="292.997" rx="0.633" ry="0.827"/>
		<ellipse style="fill:#FFFFFF;" cx="505.755" cy="193.733" rx="0.633" ry="0.827"/>
		<ellipse style="fill:#FFFFFF;" cx="505.755" cy="200.351" rx="0.633" ry="0.827"/>
		<ellipse style="fill:#FFFFFF;" cx="505.755" cy="206.968" rx="0.633" ry="0.827"/>
		<ellipse style="fill:#FFFFFF;" cx="505.755" cy="213.586" rx="0.633" ry="0.827"/>
		<ellipse style="fill:#FFFFFF;" cx="505.755" cy="220.203" rx="0.633" ry="0.827"/>
		<ellipse style="fill:#FFFFFF;" cx="505.755" cy="226.821" rx="0.633" ry="0.827"/>
		<ellipse style="fill:#FFFFFF;" cx="505.755" cy="233.438" rx="0.633" ry="0.827"/>
		<ellipse style="fill:#FFFFFF;" cx="505.755" cy="240.056" rx="0.633" ry="0.827"/>
		<ellipse style="fill:#FFFFFF;" cx="505.755" cy="246.674" rx="0.633" ry="0.827"/>
		<ellipse style="fill:#FFFFFF;" cx="505.755" cy="253.291" rx="0.633" ry="0.827"/>
		<ellipse style="fill:#FFFFFF;" cx="505.755" cy="259.909" rx="0.633" ry="0.827"/>
		<ellipse style="fill:#FFFFFF;" cx="505.755" cy="266.526" rx="0.633" ry="0.827"/>
		<ellipse style="fill:#FFFFFF;" cx="505.755" cy="273.144" rx="0.633" ry="0.827"/>
		<ellipse style="fill:#FFFFFF;" cx="505.755" cy="279.761" rx="0.633" ry="0.827"/>
		<ellipse style="fill:#FFFFFF;" cx="505.755" cy="286.379" rx="0.633" ry="0.827"/>
		<ellipse style="fill:#FFFFFF;" cx="505.755" cy="292.997" rx="0.633" ry="0.827"/>
	</g>
	<linearGradient id="SVGID_9_" gradientUnits="userSpaceOnUse" x1="476.6231" y1="431.6787" x2="927.4926" y2="431.6787">
		<stop  offset="0" style="stop-color:#3000FF;stop-opacity:0"/>
		<stop  offset="1" style="stop-color:#FF1AA7"/>
	</linearGradient>
	<path style="display:inline;opacity:0.22;fill:url(#SVGID_9_);" d="M478.296,436.691c3.406-19.214,15.226-38.356,36.335-49.227
		c27.464-14.143,63.692-11.7,96.565-8.348s68.69,6.633,97.154-6.316c29.05-13.215,42.936-40.19,70.787-54.822
		c37.998-19.963,94.932-9.69,123.61,17.841c28.678,27.531,31.155,67.402,13.992,100.01c-17.162,32.608-51.406,58.593-89.678,78.251
		c-53.44,27.448-117.693,44.313-182.064,41.379c-44.517-2.029-88.722-14.162-123.708-35.344
		C483.911,497.486,471.784,473.42,478.296,436.691z"/>
</g>
<g id="Camada_3">
	<g>
		<path style="fill:#F4F6F8;" d="M605.621,483.784c0,0-18.841-9.019-32.926-2.461c0,0-15.267,5.268-17.74,18.17
			c0,0-3.182,20.29,16.149,22.832C590.435,524.866,605.621,483.784,605.621,483.784z"/>
		<path style="fill:#F4F6F8;" d="M718.924,540.779H710.1c0,0-6.881-2.365-10.966-12.794c-4.086-10.429-1.72-20.409-1.72-20.409
			h18.683L718.924,540.779z"/>
		<path style="fill:#EBEDEF;" d="M714.974,509.229l2.898,31.55l29.568,1.639l23.139,6.263c0,0,3.71-42.415-2.842-50.317
			s-49.864,1.25-49.864,1.25L714.974,509.229z"/>
		<path style="fill:#EBEDEF;" d="M625.597,487.69c0,0-5.209-1.246-12.22-2.521c-0.82-0.149-1.664-0.298-2.528-0.446
			c-0.341-0.058-0.685-0.117-1.032-0.174c-0.698-0.116-3.407-0.537-4.806-0.744c-0.249-0.037-0.457-0.067-0.604-0.088
			c-7.52-1.053-15.449-1.695-20.852-0.878c0,0-19.15-0.134-24.143,20.723c0,0-3.596,19.208,18.714,19.799
			c21.823,0.578,0.591,0.198,0.591,0.198s39.135,0.555,44.726,2.965c0,0,23.331,1.675,26.126,0l10.859-15.33l-9.569-22.578
			l-17.74-1.183L625.597,487.69"/>
		<path style="fill:#F4F6F8;" d="M718.109,540.922c0,0,4.677,4.969,10.805,2.76s34.674,2.944,38.867,4.969
			c4.193,2.024-17.31-15.146-18.009-20.666L718.109,540.922z"/>
		<path style="fill:#F4F6F8;" d="M581.754,483.124l11.585,15.294l49.023,2.268l-15.21-12.804
			C627.152,487.881,584.473,478.737,581.754,483.124z"/>
		<path style="fill:#F4F6F8;" d="M571.266,522.614c0,0,4.87-1.887,18.798-10.806l46.442,15.462c0,0-44.003-1.296-64.786-4.536"/>
		<path style="fill:#F4F6F8;" d="M627.152,487.881c0,0-5.714,34.372,0,36.274c5.714,1.902,11.343,3.114,11.343,3.114l12.499-1.167
			l6.842-23.384l-16.975-14.768L627.152,487.881"/>
		<path style="fill:#F4F6F8;" d="M716.766,512.825l31.502,1.805c0,0,15.534-15.782,16.879-16.266c1.345-0.484-34.78,0-34.78,0
			l-14.27,2.322L716.766,512.825"/>
		<path style="fill:#EAC0A9;" d="M653.842,507.395c0,0-7.526,15.643-2.849,18.708c4.677,3.064,32.001-10.921,32.001-10.921
			l3.479-3.857l-11.289-8.606h-11.45l-10.529,5.895"/>
		<polygon style="fill:#4B738C;" points="640.86,409.076 638.495,470.706 740.682,482.855 779.877,451.353 728.186,423.615 		"/>
		<path style="fill:#FFD9C0;" d="M656.127,500.998c0,0,41.393,21.288,43.006,26.986c0,0-1.613-10.752-1.183-17.632
			c0,0,19.353,1.828,18.815,2.473c0,0-0.058-6.363,1.476-8.289c1.534-1.925,0,0,0,0l-20.184-29.664l-33.867,6.343L656.127,500.998z"
			/>
		<path style="fill:#6593AA;" d="M653.547,509.599c0,0,6.343,4.97,18.923,0c0,0-13.063-4.731-3.225-18.815
			c0,0,8.924-16.02,21.718-11.289l-2.854-5.736C688.108,473.759,683.436,460.572,653.547,509.599z"/>
		<path style="fill:#5886A8;" d="M689.154,475.862l71.047-38.083l36.985-30.964c0,0,25.374-3.44,46.446,0
			c21.073,3.44,3.457,11.24,3.457,11.24s9.875,6.823,1.704,33.917c0,0-5.161,12.825-19.353,20.174l-70.4,25.684
			c0,0-29.642,2.856-40.297,7.039C718.744,504.869,694.335,489.001,689.154,475.862z"/>
		<path style="fill:#4B738C;" d="M829.871,470.679c0,0-9.031,28.223-55.693,42.146c0,0,6.988-19.783-16.557-14.408"/>
		<polygon style="fill:#EAC0A9;" points="700.208,256.686 700.208,313.062 728.186,303.386 755.686,293.709 770.735,260.165 
			753.428,233.071 721.496,233.071 		"/>
		<path style="fill:#EAC0A9;" d="M747.73,400.794l5.698,46.594c0,0,26.019-22.833,23.922-24.177s0,0,0,0s13.386-6.075-2.742-17.471
			c-16.127-11.397-19.353-13.477-19.353-13.477L747.73,400.794z"/>
		<polyline style="fill:#D8B4A3;" points="752.74,441.114 764.341,426.759 750.901,439.446 752.74,441.114 		"/>
		<path style="fill:#5886A8;" d="M607.54,390.304c0,0-19.254-8.056-27.963-4.9c0,0-17.901,2.973-19.03,24.099
			c0,0-2.473,4.623,7.419,22.686c9.358,17.089,77.611,71.131,84.944,76.909c0.252,0.199,0.6,0.168,0.823-0.063
			c5.2-5.386,19.929-33.602,33.131-34.995c0.552-0.058,0.792-0.717,0.392-1.102L625.212,413.3c-0.024-0.023-0.046-0.048-0.066-0.074
			L607.54,390.304"/>
		<path style="fill:#F4F6F8;" d="M765.146,498.364c0,0,7.957-2.702,9.462,1.364c1.505,4.066,3.225,43.631,3.225,43.631
			s3.118,6.773-10.053,5.322C767.781,548.681,776.542,521.103,765.146,498.364"/>
		<path style="fill:#DB8D8D;" d="M670.122,275.414c0,0-15.768,9.748-15.768,23.94c0,14.192-13.493,51.123-13.493,51.123
			l96.166,3.924c0,0,8.983,0.591,9.359,12.472l4.731,35.695c0,0,6.451-6.451,16.342,0c0,0,15.052,18.493,9.891,20.643
			c0,0,16.342-13.762,24.083-15.482c0,0,20.32-4.032,31.663,1.935c9.961,5.24,12.633,3.656,16.934,13.547
			c0,0,8.171-13.762,6.451-23.653c0,0-6.451-17.632-6.451-24.083c0,0-3.01-69.67-8.171-80.851c0,0-20.656-26.681-27.147-29.62
			c0,0-27.9-11.665-30.911-7.365c0,0-19.783,18.923-21.073,25.374s-28.172,6.457-42.146,2.15
			C712.035,282.528,670.122,275.414,670.122,275.414z"/>
		<path style="fill:#D67676;" d="M717.168,284.267c0,0,3.116,4.365,20.172,3.678c17.056-0.687,0,0,0,0
			S724.236,291.812,717.168,284.267"/>
		<path style="fill:#D67676;" d="M717.144,283.28c0,0,8.299,4.984,17.999,2.133c9.776-2.873,3.877,2.418,2.695,2.563
			s-19.353,2.292-22.148-3.084"/>
		<polygon style="fill:#D67676;" points="789.045,395.203 820.41,285.968 815.679,332.415 831.591,310.052 825.141,337.145 
			838.042,327.684 821.7,358.648 828.151,355.208 		"/>
		<path style="fill:#D67676;" d="M789.045,395.203c0,0,29.644-20.213,48.997-2.58C838.042,392.623,787.006,391.467,789.045,395.203z
			"/>
		<path style="fill:#D67676;" d="M662.128,328.827L662.128,328.827l10.341,22.618h-10.341
			C662.128,351.445,668.881,344.914,662.128,328.827"/>
		<path style="fill:#D67676;" d="M753.428,359.186c0,0,9.812,16.055,27.722,9.629c0.744-0.267,1.503-0.573,2.275-0.92
			C802.777,359.186,755.148,371.765,753.428,359.186z"/>
		<path style="fill:#D67676;" d="M757.198,397.287c0,0,14.293-9.018,22.679-2.89L757.198,397.287z"/>
		<path style="fill:#FFD9C0;" d="M715.922,264.277c0,0,3.639,3.952,7.187,3.952c3.548,0,7.419,2.741,12.257-3.952
			c0,0,9.389-11.961,9.708-17.725c0.319-5.764,10.613-47.025,10.613-47.025l-30.964-18.063l-39.714,14.192l-5.119,22.901
			l7.096,29.627l10.644,20.6L715.922,264.277"/>
		<polygon style="fill:#C1B9B6;" points="614.734,439.016 601.348,348.381 745.203,353.703 756.331,447.563 		"/>
		<path style="fill:#3A3939;" d="M717.144,151.831c0,0-43.089,2.238-45.965,39.632c-2.293,29.814-9.173,28.034-2.975,40.63
			c1.966,3.996,2.975,8.403,2.975,12.857v17.692c0,0.642-0.018,1.292-0.059,1.933c-2.397,38.093-14.058,49.777-11.069,58.808
			c5.068,15.31,17.472,33.5,32.16,23.008c0,0,6.491-7.203,9.932-11.074c0,0,3.063-4.189,5.382-10.525
			c4.294-11.73,1.25-19.502,6.552-32.051c8.453-20.007,5.661-28.866-10.339-40.557c-7.693-5.621-13.083-13.853-15.325-23.113
			l-1.322-5.462l-2.365-11.827c-2.307-7.132,0.696-10.592,7.411-13.925c3.009-1.493,6.732-2.044,11.2-0.488"/>
		
			<ellipse transform="matrix(0.0375 -0.9993 0.9993 0.0375 438.6015 921.4019)" style="fill:none;stroke:#FCE11D;stroke-miterlimit:10;" cx="697.604" cy="233.021" rx="9.848" ry="9.848"/>
		
			<ellipse transform="matrix(0.0995 -0.995 0.995 0.0995 426.0933 924.1575)" style="fill:none;stroke:#FCE11D;stroke-miterlimit:10;" cx="723.635" cy="226.666" rx="9.848" ry="9.848"/>
		<path style="fill:none;stroke:#FCE11D;stroke-miterlimit:10;" d="M707.433,233.682c0.079-2.027,1.378-3.74,3.154-4.243
			c2.031-0.575,3.712,0.705,3.892,0.848"/>
		<polyline style="fill:none;stroke:#FCE11D;stroke-miterlimit:10;" points="732.456,222.282 746.222,209.159 732.318,220.029 		"/>
		<polygon style="opacity:0.12;fill:#4B738C;" points="664.934,493.25 563.745,397.287 566.937,392.735 667.99,487.881 		"/>
		<polygon style="opacity:0.12;fill:#4B738C;" points="700.316,490.36 847.09,418.055 850.03,423.211 704.504,494.122 		"/>
		<path style="fill:#494545;" d="M710.745,149.532c-17.529,6.827-27.494,20.871-25.481,32.577
			c1.669,9.708,11.155,15.355,11.934,15.805c14.293,8.241,27.484-2.839,37.415,1.935c8.006,3.849,14.811,18.445,8.386,66.767
			c-9.481,25.675-7.155,45.143-4.838,55.478c1.758,7.84,5.121,22.843,13.547,24.513c9.9,1.962,25.617-9.246,27.846-12.902
			c3.458-5.67,11.054-16.772,5.053-38.06c-7.972-28.281,8.31-43.535,3.548-56.768c-3.662-10.176-6.418-8.27-13.224-22.901
			c-9.359-20.118-6.813-29.451-12.257-39.996C757.375,165.717,744.468,154.229,710.745,149.532z"/>
		<rect x="593.001" y="497.973" style="fill:#FFFFFF;" width="3.106" height="15.309"/>
		<rect x="608.636" y="499.023" style="fill:#FFFFFF;" width="3.106" height="19.15"/>
		<rect x="614.012" y="499.614" style="fill:#FFFFFF;" width="3.106" height="20.951"/>
		<rect x="619.312" y="499.728" style="fill:#FFFFFF;" width="3.106" height="22.71"/>
		
			<rect x="745.339" y="514.013" transform="matrix(0.9945 -0.1048 0.1048 0.9945 -50.5811 81.1434)" style="fill:#FFFFFF;" width="3.106" height="15.805"/>
		
			<rect x="739.288" y="514.041" transform="matrix(0.9945 -0.1048 0.1048 0.9945 -50.7031 80.514)" style="fill:#FFFFFF;" width="3.106" height="17.44"/>
		
			<rect x="733.923" y="513.897" transform="matrix(0.9945 -0.1048 0.1048 0.9945 -50.8855 79.9598)" style="fill:#FFFFFF;" width="3.106" height="20.646"/>
		
			<rect x="728.547" y="513.779" transform="matrix(0.9945 -0.1048 0.1048 0.9945 -51.0109 79.4015)" style="fill:#FFFFFF;" width="3.106" height="22.71"/>
		
			<rect x="723.109" y="512.825" transform="matrix(0.9945 -0.1048 0.1048 0.9945 -51.091 78.8342)" style="fill:#FFFFFF;" width="3.106" height="25.575"/>
		
			<rect x="718.029" y="512.516" transform="matrix(0.9945 -0.1048 0.1048 0.9945 -51.2274 78.3075)" style="fill:#FFFFFF;" width="3.106" height="28.263"/>
		<rect x="598.827" y="497.973" style="fill:#FFFFFF;" width="3.106" height="16.657"/>
		<rect x="604.069" y="498.405" style="fill:#FFFFFF;" width="3.106" height="18.341"/>
	</g>
</g>
</svg>
